# xmcd CD database file
#
# Track frame offsets:
#	150
#	13357
#	31735
#	46765
#	78237
#	96542
#	129192
#	154895
#	180592
#	199547
#	219315
#
# Disc length: 3062 seconds
#
# Revision: 0
# Processed by: cddbd v1.4PL0 Copyright (c) Steve Scherf et al.
# Submitted via: CDex 1.50Beta6
#
DISCID=850bf40b
DTITLE=Alain Jean-Marie - Biguine reflections
DYEAR=2000
DGENRE=Jazz
TTITLE0=Pa Oublié ti comission - la
TTITLE1=Déception
TTITLE2=Se ou mem' ki lanmou
TTITLE3=Haïti
TTITLE4=Cécilia
TTITLE5=Délirio
TTITLE6=Meci Bondié
TTITLE7=Sanmdi
TTITLE8=Diamant h20
TTITLE9=Nathalie
TTITLE10=Fête à la Guadeloupe
EXTD=YEAR: 2000
EXTT0=
EXTT1=
EXTT2=
EXTT3=
EXTT4=
EXTT5=
EXTT6=
EXTT7=
EXTT8=
EXTT9=
EXTT10=
PLAYORDER=
